<svg width="299" height="91" viewBox="0 0 299 91" fill="none" xmlns="http://www.w3.org/2000/svg">
<rect x="20.44" y="25" width="40.8799" height="40.8799" rx="10.22" fill="#111111"/>
<path fill-rule="evenodd" clip-rule="evenodd" d="M49.9214 53.9877C51.1379 53.2856 52.1035 52.2206 52.6803 50.9448C53.257 49.669 53.4153 48.2476 53.1326 46.8838C52.8499 45.52 52.1407 44.2835 51.1062 43.351C50.0717 42.4185 48.7649 41.8377 47.3725 41.6915C47.9421 40.4125 48.0925 38.9904 47.8021 37.6282C47.5118 36.2661 46.7956 35.0336 45.7558 34.1069C44.7161 33.1802 43.406 32.6066 42.0128 32.4682C40.6195 32.3297 39.2144 32.6334 37.9981 33.336L31.8589 36.8804L34.8549 37.6682L38.3396 38.5869C38.6689 38.6735 39.0203 38.6261 39.3166 38.455C39.6129 38.284 39.8297 38.0033 39.9194 37.6748C40.0091 37.3463 39.9642 36.9969 39.7948 36.7033C39.6253 36.4098 39.3451 36.1963 39.0158 36.1097L38.5289 35.9817L39.2764 35.5501C39.7408 35.282 40.253 35.1071 40.7837 35.0355C41.3144 34.9638 41.8532 34.9968 42.3695 35.1325C42.8857 35.2683 43.3691 35.5041 43.7923 35.8265C44.2154 36.149 44.5699 36.5517 44.8355 37.0118C45.1011 37.4719 45.2727 37.9803 45.3404 38.5079C45.4081 39.0356 45.3706 39.5722 45.23 40.0871C45.0894 40.602 44.8486 41.0852 44.5212 41.509C44.1938 41.9327 43.7862 42.2889 43.3218 42.557L38.6679 45.2439C37.9156 44.5571 36.9389 44.163 35.9145 44.1331C34.8902 44.1032 33.886 44.4394 33.0838 45.0809C32.2815 45.7224 31.7342 46.6267 31.5409 47.6302C31.3476 48.6337 31.5211 49.6699 32.03 50.5514C32.5389 51.4329 33.3496 52.1013 34.3153 52.4357C35.281 52.77 36.3378 52.7482 37.2945 52.3741C38.2512 52.0001 39.0444 51.2985 39.5307 50.3965C40.017 49.4945 40.1641 48.4516 39.9454 47.4566L44.5993 44.7697C45.5372 44.2282 46.6498 44.0779 47.6924 44.3521C48.7349 44.6262 49.622 45.3022 50.1584 46.2313C50.6949 47.1605 50.8368 48.2667 50.5529 49.3067C50.269 50.3466 49.5826 51.235 48.6447 51.7765L47.8972 52.2081L48.0298 51.7224C48.081 51.5578 48.0985 51.3849 48.0812 51.2139C48.0639 51.043 48.0121 50.8775 47.929 50.7274C47.8459 50.5773 47.7331 50.4457 47.5974 50.3404C47.4617 50.2351 47.3059 50.1582 47.1392 50.1144C46.9725 50.0705 46.7983 50.0606 46.6272 50.0853C46.456 50.1099 46.2913 50.1686 46.1428 50.2578C45.9944 50.347 45.8653 50.4649 45.7632 50.6044C45.6611 50.744 45.5882 50.9023 45.5487 51.0701L44.5965 54.5445L43.7822 57.5322L49.9214 53.9877ZM34.9029 46.924C34.5079 47.152 34.2189 47.5261 34.0994 47.9639C33.9799 48.4018 34.0396 48.8676 34.2655 49.2588C34.4914 49.65 34.8649 49.9347 35.3038 50.0501C35.7428 50.1655 36.2113 50.1022 36.6062 49.8742C37.0011 49.6462 37.2901 49.2722 37.4096 48.8343C37.5292 48.3964 37.4694 47.9307 37.2435 47.5394C37.0177 47.1482 36.6442 46.8636 36.2052 46.7482C35.7662 46.6327 35.2978 46.696 34.9029 46.924Z" fill="white"/>
<path d="M82.7137 58.44V48.22H99.1474V42.7421H82.7137V36.5692H99.7606V31.0504H76.5817V58.44H82.7137ZM113.245 58.8488C119.745 58.8488 124.078 55.7419 124.078 51.286V50.8363H117.946V51.2451C117.946 53.0029 116.679 53.9432 113.041 53.9432C109.075 53.9432 107.604 52.5941 107.44 49.4464H124.119C124.201 48.7514 124.283 48.22 124.283 47.4841C124.283 41.066 119.827 37.5503 113.123 37.5503C106.377 37.5503 101.758 41.6792 101.758 48.22C101.758 55.4966 106.418 58.8488 113.245 58.8488ZM113 42.3333C116.597 42.3333 118.233 43.5188 118.396 46.2169H107.522C107.808 43.5597 109.362 42.3333 113 42.3333ZM137.757 58.8488C144.257 58.8488 148.59 55.7419 148.59 51.286V50.8363H142.458V51.2451C142.458 53.0029 141.191 53.9432 137.553 53.9432C133.587 53.9432 132.116 52.5941 131.952 49.4464H148.631C148.713 48.7514 148.795 48.22 148.795 47.4841C148.795 41.066 144.339 37.5503 137.635 37.5503C130.889 37.5503 126.27 41.6792 126.27 48.22C126.27 55.4966 130.93 58.8488 137.757 58.8488ZM137.512 42.3333C141.109 42.3333 142.745 43.5188 142.908 46.2169H132.034C132.32 43.5597 133.874 42.3333 137.512 42.3333ZM160.552 58.8488C165.253 58.8488 167.951 56.8048 168.728 52.7576H169.055V58.44H174.778V31.0504H168.646V43.3961H168.279C167.584 39.9622 165.09 37.5503 160.225 37.5503C154.134 37.5503 150.659 41.6792 150.659 48.22C150.659 54.679 154.175 58.8488 160.552 58.8488ZM156.873 48.22C156.873 44.459 158.713 43.1509 162.637 43.1509C166.562 43.1509 168.646 44.459 168.646 48.0156V48.3426C168.646 51.8992 166.521 53.2482 162.637 53.2482C158.713 53.2482 156.873 51.94 156.873 48.22ZM184.155 58.44V48.1791C184.155 44.7452 185.422 43.0691 189.551 43.0691C193.394 43.0691 194.865 44.2955 194.865 47.7294V58.44H200.997V45.8898C200.997 41.1478 198.299 37.5503 192.781 37.5503C187.548 37.5503 185.136 40.739 184.482 44.2137H184.155V31.0504H178.023V58.44H184.155ZM215.007 58.8488C221.997 58.8488 226.698 54.679 226.698 48.22C226.698 41.6792 221.997 37.5503 215.007 37.5503C208.016 37.5503 203.315 41.6792 203.315 48.22C203.315 54.679 208.016 58.8488 215.007 58.8488ZM215.007 53.4117C210.837 53.4117 209.406 51.8174 209.406 48.22C209.406 44.6225 210.837 42.9465 215.007 42.9465C219.136 42.9465 220.607 44.6225 220.607 48.22C220.607 51.8174 219.136 53.4117 215.007 53.4117ZM240.118 58.8488C247.108 58.8488 251.809 54.679 251.809 48.22C251.809 41.6792 247.108 37.5503 240.118 37.5503C233.127 37.5503 228.426 41.6792 228.426 48.22C228.426 54.679 233.127 58.8488 240.118 58.8488ZM240.118 53.4117C235.948 53.4117 234.517 51.8174 234.517 48.22C234.517 44.6225 235.948 42.9465 240.118 42.9465C244.246 42.9465 245.718 44.6225 245.718 48.22C245.718 51.8174 244.246 53.4117 240.118 53.4117ZM260.445 58.44V51.0407H265.147L270.257 58.44H277.492L270.134 47.8521L277.615 37.9591H270.338L265.106 45.5628H260.445V31.0504H254.313V58.44H260.445Z" fill="#111111"/>
</svg>
