<svg width="42" height="41" viewBox="0 0 42 41" fill="none" xmlns="http://www.w3.org/2000/svg">
<rect x="0.439957" y="1.90735e-06" width="40.8799" height="40.8799" rx="10.22" fill="#111111"/>
<path fill-rule="evenodd" clip-rule="evenodd" d="M29.9213 28.9877C31.1379 28.2856 32.1035 27.2206 32.6802 25.9448C33.2569 24.669 33.4153 23.2476 33.1326 21.8838C32.8499 20.52 32.1406 19.2835 31.1061 18.351C30.0716 17.4185 28.7649 16.8377 27.3725 16.6915C27.9421 15.4125 28.0924 13.9904 27.8021 12.6282C27.5117 11.2661 26.7955 10.0336 25.7558 9.10689C24.716 8.18017 23.406 7.60661 22.0127 7.46815C20.6195 7.3297 19.2143 7.63343 17.998 8.33596L11.8588 11.8804L14.8549 12.6682L18.3395 13.5869C18.6688 13.6735 19.0203 13.6261 19.3166 13.455C19.6128 13.284 19.8297 13.0033 19.9193 12.6748C20.009 12.3463 19.9642 11.9969 19.7947 11.7033C19.6253 11.4098 19.345 11.1963 19.0157 11.1097L18.5289 10.9817L19.2763 10.5501C19.7408 10.282 20.2529 10.1071 20.7836 10.0355C21.3143 9.96382 21.8532 9.9968 22.3694 10.1325C22.8856 10.2683 23.3691 10.5041 23.7922 10.8265C24.2153 11.149 24.5698 11.5517 24.8354 12.0118C25.1011 12.4719 25.2726 12.9803 25.3403 13.5079C25.408 14.0356 25.3705 14.5722 25.2299 15.0871C25.0894 15.602 24.8485 16.0852 24.5211 16.509C24.1937 16.9327 23.7862 17.2889 23.3218 17.557L18.6679 20.2439C17.9155 19.5571 16.9388 19.163 15.9145 19.1331C14.8902 19.1032 13.886 19.4394 13.0837 20.0809C12.2814 20.7224 11.7341 21.6267 11.5408 22.6302C11.3475 23.6337 11.521 24.6699 12.03 25.5514C12.5389 26.4329 13.3496 27.1013 14.3152 27.4357C15.2809 27.77 16.3377 27.7482 17.2944 27.3741C18.2511 27.0001 19.0444 26.2985 19.5306 25.3965C20.0169 24.4945 20.164 23.4516 19.9453 22.4566L24.5993 19.7697C25.5372 19.2282 26.6498 19.078 27.6923 19.3521C28.7348 19.6262 29.6219 20.3022 30.1584 21.2314C30.6948 22.1605 30.8367 23.2667 30.5528 24.3067C30.269 25.3466 29.5826 26.235 28.6447 26.7765L27.8972 27.2081L28.0297 26.7224C28.081 26.5578 28.0985 26.3849 28.0812 26.2139C28.0638 26.043 28.0121 25.8775 27.929 25.7274C27.8458 25.5774 27.7331 25.4457 27.5974 25.3404C27.4617 25.2351 27.3058 25.1582 27.1391 25.1144C26.9724 25.0705 26.7983 25.0606 26.6271 25.0853C26.4559 25.1099 26.2912 25.1686 26.1428 25.2578C25.9943 25.347 25.8652 25.4649 25.7631 25.6044C25.6611 25.744 25.5881 25.9023 25.5486 26.0701L24.5964 29.5445L23.7821 32.5322L29.9213 28.9877ZM14.9028 21.924C14.5079 22.152 14.2189 22.5261 14.0993 22.9639C13.9798 23.4018 14.0396 23.8676 14.2654 24.2588C14.4913 24.65 14.8648 24.9347 15.3038 25.0501C15.7427 25.1655 16.2112 25.1022 16.6061 24.8742C17.001 24.6462 17.29 24.2722 17.4096 23.8343C17.5291 23.3964 17.4693 22.9307 17.2435 22.5394C17.0176 22.1482 16.6441 21.8636 16.2051 21.7482C15.7662 21.6327 15.2977 21.696 14.9028 21.924Z" fill="white"/>
</svg>
